# xmcd
#
# Track frame offsets: 
#        150
#        17275
#        32527
#        48895
#        74740
#        95567
#        110487
#        137170
#        158977
#        185525
#        203040
#        228105
#        242167
#        266837
#        287657
#
# Disc length: 4132 seconds
#
# Revision: 0
# Processed by: cddbd v1.5.1PL2 Copyright (c) Steve Scherf et al.
# Submitted via: ExactAudioCopy v0.95a5
#
DISCID=d010220f
DTITLE=Aaron Moore - Hello World
DYEAR=1996
DGENRE=Blues
TTITLE0=Hello World
TTITLE1=What Did You Do To Me
TTITLE2=I Just Called
TTITLE3=You Got Good Business
TTITLE4=Keep Lovin' Me
TTITLE5=I Feel Alright Again
TTITLE6=Why You So Mean To Me
TTITLE7=So Long
TTITLE8=Security
TTITLE9=Searching For Love
TTITLE10=I Once Was Lost
TTITLE11=Castle Rock Boogie
TTITLE12=Lonely Blues
TTITLE13=True Love Is Like That
TTITLE14=It's All Over
EXTD=
EXTT0=
EXTT1=
EXTT2=
EXTT3=
EXTT4=
EXTT5=
EXTT6=
EXTT7=
EXTT8=
EXTT9=
EXTT10=
EXTT11=
EXTT12=
EXTT13=
EXTT14=
PLAYORDER=
